<svg width="6" height="5" viewBox="0 0 6 5" fill="none" xmlns="http://www.w3.org/2000/svg">
<path d="M5.05664 2.34961C5.05664 2.97461 4.8418 3.50195 4.41211 3.93164C3.98242 4.36133 3.45312 4.57617 2.82422 4.57617C2.20312 4.57617 1.67578 4.36328 1.24219 3.9375C0.808594 3.51172 0.591797 2.98242 0.591797 2.34961C0.591797 1.72461 0.806641 1.19727 1.23633 0.767578C1.66602 0.337891 2.19531 0.123047 2.82422 0.123047C3.45312 0.123047 3.98242 0.337891 4.41211 0.767578C4.8418 1.19727 5.05664 1.72461 5.05664 2.34961ZM4.13672 2.34961C4.13672 1.97461 4.01172 1.6582 3.76172 1.40039C3.51172 1.14258 3.19922 1.01367 2.82422 1.01367C2.44922 1.01367 2.13672 1.14258 1.88672 1.40039C1.63672 1.6582 1.51172 1.97461 1.51172 2.34961C1.51172 2.73242 1.63867 3.05078 1.89258 3.30469C2.15039 3.55859 2.46094 3.68555 2.82422 3.68555C3.19922 3.68555 3.51172 3.55664 3.76172 3.29883C4.01172 3.03711 4.13672 2.7207 4.13672 2.34961Z" fill="#F0F0F0"/>
</svg>
